<?xml version="1.0" standalone="no"?>
<!DOCTYPE svg PUBLIC "-//W3C//DTD SVG 20010904//EN"
 "http://www.w3.org/TR/2001/REC-SVG-20010904/DTD/svg10.dtd">
<svg version="1.0" xmlns="http://www.w3.org/2000/svg"
 width="360.000000pt" height="360.000000pt" viewBox="0 0 360.000000 360.000000"
 preserveAspectRatio="xMidYMid meet">
<metadata>
Created by potrace 1.11, written by Peter Selinger 2001-2013
</metadata>
<g transform="translate(0.000000,360.000000) scale(0.100000,-0.100000)"
fill="#000000" stroke="none">
<path d="M2218 2751 c-52 -17 -108 -55 -132 -90 -40 -57 -49 -91 -49 -176 0
-123 40 -197 129 -241 66 -32 186 -42 254 -22 l45 14 3 62 c3 61 2 62 -23 62
-23 0 -25 -4 -25 -40 0 -34 -4 -42 -26 -50 -59 -23 -147 -5 -199 42 -46 40
-69 117 -62 204 10 130 87 201 208 192 68 -5 79 -14 79 -70 0 -34 3 -38 25
-38 24 0 25 2 25 65 0 56 -3 66 -22 77 -28 14 -192 21 -230 9z"/>
<path d="M1090 2730 c0 -16 7 -20 35 -20 l35 0 0 -225 0 -225 -35 0 c-28 0
-35 -4 -35 -20 0 -19 7 -20 95 -20 87 0 95 2 95 19 0 15 -8 21 -32 23 l-33 3
-3 204 -2 205 38 -55 c21 -29 97 -134 170 -231 110 -148 136 -178 157 -178
l25 0 0 250 0 250 35 0 c28 0 35 4 35 20 0 19 -7 20 -95 20 -88 0 -95 -1 -95
-20 0 -16 7 -20 35 -20 l35 0 0 -187 0 -188 -19 31 c-10 17 -78 110 -151 207
l-132 177 -79 0 c-72 0 -79 -2 -79 -20z"/>
<path d="M1730 2730 c0 -16 7 -20 30 -20 l30 0 0 -251 c0 -257 -3 -278 -42
-309 -20 -17 -16 -50 7 -50 19 0 76 42 99 73 20 27 21 43 24 283 l3 254 35 0
c27 0 34 4 34 20 0 19 -7 20 -110 20 -103 0 -110 -1 -110 -20z"/>
</g>
</svg>
